<mxfile host="app.diagrams.net" modified="2021-03-13T23:53:48.577Z" agent="5.0 (Macintosh; Intel Mac OS X 11_1_0) AppleWebKit/537.36 (KHTML, like Gecko) Chrome/88.0.4324.146 Safari/537.36" etag="307Kf53QTcCYyOSGIDWQ" version="14.3.1" type="github">
  <diagram id="9pjWV6XYVZnFbX4phznE" name="Page-1">
    <mxGraphModel dx="1186" dy="518" grid="1" gridSize="10" guides="1" tooltips="1" connect="1" arrows="1" fold="1" page="1" pageScale="1" pageWidth="850" pageHeight="1100" math="0" shadow="0">
      <root>
        <mxCell id="0" />
        <mxCell id="1" parent="0" />
        <mxCell id="YGxNnv0O2CKbyeqGC6qJ-76" value="" style="rounded=0;whiteSpace=wrap;html=1;" vertex="1" parent="1">
          <mxGeometry x="480" y="100" width="90" height="220" as="geometry" />
        </mxCell>
        <mxCell id="YGxNnv0O2CKbyeqGC6qJ-2" value="" style="rounded=0;whiteSpace=wrap;html=1;" vertex="1" parent="1">
          <mxGeometry x="80" y="120" width="120" height="200" as="geometry" />
        </mxCell>
        <mxCell id="YGxNnv0O2CKbyeqGC6qJ-3" value="Home page&lt;br&gt;" style="text;html=1;resizable=0;autosize=1;align=center;verticalAlign=middle;points=[];fillColor=none;strokeColor=none;rounded=0;" vertex="1" parent="1">
          <mxGeometry x="80" y="120" width="80" height="20" as="geometry" />
        </mxCell>
        <mxCell id="YGxNnv0O2CKbyeqGC6qJ-5" value="UPLOAD button" style="rounded=1;whiteSpace=wrap;html=1;" vertex="1" parent="1">
          <mxGeometry x="95" y="180" width="90" height="30" as="geometry" />
        </mxCell>
        <mxCell id="YGxNnv0O2CKbyeqGC6qJ-6" value="VIEW button" style="rounded=1;whiteSpace=wrap;html=1;" vertex="1" parent="1">
          <mxGeometry x="95" y="230" width="90" height="30" as="geometry" />
        </mxCell>
        <mxCell id="YGxNnv0O2CKbyeqGC6qJ-8" value="" style="rounded=0;whiteSpace=wrap;html=1;" vertex="1" parent="1">
          <mxGeometry x="280" y="120" width="120" height="200" as="geometry" />
        </mxCell>
        <mxCell id="YGxNnv0O2CKbyeqGC6qJ-9" value="Upload page" style="text;html=1;resizable=0;autosize=1;align=center;verticalAlign=middle;points=[];fillColor=none;strokeColor=none;rounded=0;" vertex="1" parent="1">
          <mxGeometry x="280" y="120" width="80" height="20" as="geometry" />
        </mxCell>
        <mxCell id="YGxNnv0O2CKbyeqGC6qJ-10" value="user String input" style="rounded=0;whiteSpace=wrap;html=1;" vertex="1" parent="1">
          <mxGeometry x="290" y="160" width="100" height="30" as="geometry" />
        </mxCell>
        <mxCell id="YGxNnv0O2CKbyeqGC6qJ-11" value="user input select options from drop-down" style="rounded=0;whiteSpace=wrap;html=1;" vertex="1" parent="1">
          <mxGeometry x="290" y="200" width="100" height="50" as="geometry" />
        </mxCell>
        <mxCell id="YGxNnv0O2CKbyeqGC6qJ-12" value="user select file from local computer (/ drive?" style="rounded=1;whiteSpace=wrap;html=1;" vertex="1" parent="1">
          <mxGeometry x="290" y="260" width="100" height="50" as="geometry" />
        </mxCell>
        <mxCell id="YGxNnv0O2CKbyeqGC6qJ-14" value="" style="rounded=0;whiteSpace=wrap;html=1;" vertex="1" parent="1">
          <mxGeometry x="185" y="340" width="120" height="200" as="geometry" />
        </mxCell>
        <mxCell id="YGxNnv0O2CKbyeqGC6qJ-15" value="User login page" style="text;html=1;resizable=0;autosize=1;align=center;verticalAlign=middle;points=[];fillColor=none;strokeColor=none;rounded=0;" vertex="1" parent="1">
          <mxGeometry x="185" y="340" width="100" height="20" as="geometry" />
        </mxCell>
        <mxCell id="YGxNnv0O2CKbyeqGC6qJ-16" value="user String input, prompt user ID" style="rounded=0;whiteSpace=wrap;html=1;" vertex="1" parent="1">
          <mxGeometry x="195" y="380" width="100" height="30" as="geometry" />
        </mxCell>
        <mxCell id="YGxNnv0O2CKbyeqGC6qJ-17" value="user String input, prompt user pass" style="rounded=0;whiteSpace=wrap;html=1;" vertex="1" parent="1">
          <mxGeometry x="195" y="425" width="100" height="30" as="geometry" />
        </mxCell>
        <mxCell id="YGxNnv0O2CKbyeqGC6qJ-19" value="LOGIN button" style="rounded=1;whiteSpace=wrap;html=1;" vertex="1" parent="1">
          <mxGeometry x="200" y="480" width="90" height="30" as="geometry" />
        </mxCell>
        <mxCell id="YGxNnv0O2CKbyeqGC6qJ-21" value="" style="endArrow=classic;html=1;exitX=1;exitY=0.25;exitDx=0;exitDy=0;entryX=-0.037;entryY=0.45;entryDx=0;entryDy=0;entryPerimeter=0;" edge="1" parent="1" source="YGxNnv0O2CKbyeqGC6qJ-5" target="YGxNnv0O2CKbyeqGC6qJ-9">
          <mxGeometry relative="1" as="geometry">
            <mxPoint x="220" y="200" as="sourcePoint" />
            <mxPoint x="250" y="210" as="targetPoint" />
          </mxGeometry>
        </mxCell>
        <mxCell id="YGxNnv0O2CKbyeqGC6qJ-22" value="Option 1" style="edgeLabel;resizable=0;html=1;align=center;verticalAlign=middle;" connectable="0" vertex="1" parent="YGxNnv0O2CKbyeqGC6qJ-21">
          <mxGeometry relative="1" as="geometry" />
        </mxCell>
        <mxCell id="YGxNnv0O2CKbyeqGC6qJ-24" value="" style="endArrow=classic;html=1;exitX=1;exitY=0.5;exitDx=0;exitDy=0;" edge="1" parent="1" source="YGxNnv0O2CKbyeqGC6qJ-5" target="YGxNnv0O2CKbyeqGC6qJ-15">
          <mxGeometry relative="1" as="geometry">
            <mxPoint x="60" y="448.5" as="sourcePoint" />
            <mxPoint x="152.03999999999996" y="390" as="targetPoint" />
          </mxGeometry>
        </mxCell>
        <mxCell id="YGxNnv0O2CKbyeqGC6qJ-25" value="Option 2" style="edgeLabel;resizable=0;html=1;align=center;verticalAlign=middle;" connectable="0" vertex="1" parent="YGxNnv0O2CKbyeqGC6qJ-24">
          <mxGeometry relative="1" as="geometry" />
        </mxCell>
        <mxCell id="YGxNnv0O2CKbyeqGC6qJ-26" value="" style="endArrow=classic;html=1;exitX=1;exitY=0.5;exitDx=0;exitDy=0;" edge="1" parent="1" source="YGxNnv0O2CKbyeqGC6qJ-10" target="YGxNnv0O2CKbyeqGC6qJ-27">
          <mxGeometry width="50" height="50" relative="1" as="geometry">
            <mxPoint x="400" y="320" as="sourcePoint" />
            <mxPoint x="480" y="120" as="targetPoint" />
          </mxGeometry>
        </mxCell>
        <mxCell id="YGxNnv0O2CKbyeqGC6qJ-27" value="Doc.DocName" style="text;html=1;resizable=0;autosize=1;align=center;verticalAlign=middle;points=[];fillColor=none;strokeColor=none;rounded=0;" vertex="1" parent="1">
          <mxGeometry x="480" y="140" width="90" height="20" as="geometry" />
        </mxCell>
        <mxCell id="YGxNnv0O2CKbyeqGC6qJ-28" value="Doc.subject" style="text;html=1;resizable=0;autosize=1;align=center;verticalAlign=middle;points=[];fillColor=none;strokeColor=none;rounded=0;" vertex="1" parent="1">
          <mxGeometry x="480" y="180" width="80" height="20" as="geometry" />
        </mxCell>
        <mxCell id="YGxNnv0O2CKbyeqGC6qJ-29" value="Doc.grade" style="text;html=1;resizable=0;autosize=1;align=center;verticalAlign=middle;points=[];fillColor=none;strokeColor=none;rounded=0;" vertex="1" parent="1">
          <mxGeometry x="480" y="220" width="70" height="20" as="geometry" />
        </mxCell>
        <mxCell id="YGxNnv0O2CKbyeqGC6qJ-30" value="" style="endArrow=classic;html=1;exitX=1;exitY=0.25;exitDx=0;exitDy=0;entryX=0.013;entryY=0.4;entryDx=0;entryDy=0;entryPerimeter=0;" edge="1" parent="1" source="YGxNnv0O2CKbyeqGC6qJ-11" target="YGxNnv0O2CKbyeqGC6qJ-28">
          <mxGeometry width="50" height="50" relative="1" as="geometry">
            <mxPoint x="400" y="310" as="sourcePoint" />
            <mxPoint x="450" y="260" as="targetPoint" />
          </mxGeometry>
        </mxCell>
        <mxCell id="YGxNnv0O2CKbyeqGC6qJ-31" value="" style="endArrow=classic;html=1;exitX=1;exitY=0.75;exitDx=0;exitDy=0;entryX=0;entryY=0.45;entryDx=0;entryDy=0;entryPerimeter=0;" edge="1" parent="1" source="YGxNnv0O2CKbyeqGC6qJ-11" target="YGxNnv0O2CKbyeqGC6qJ-29">
          <mxGeometry width="50" height="50" relative="1" as="geometry">
            <mxPoint x="400" y="310" as="sourcePoint" />
            <mxPoint x="450" y="260" as="targetPoint" />
          </mxGeometry>
        </mxCell>
        <mxCell id="YGxNnv0O2CKbyeqGC6qJ-36" value="" style="endArrow=classic;html=1;exitX=0;exitY=0.5;exitDx=0;exitDy=0;" edge="1" parent="1" source="YGxNnv0O2CKbyeqGC6qJ-19" target="YGxNnv0O2CKbyeqGC6qJ-37">
          <mxGeometry width="50" height="50" relative="1" as="geometry">
            <mxPoint x="400" y="310" as="sourcePoint" />
            <mxPoint x="360" y="510" as="targetPoint" />
          </mxGeometry>
        </mxCell>
        <mxCell id="YGxNnv0O2CKbyeqGC6qJ-37" value="Login API" style="text;html=1;resizable=0;autosize=1;align=center;verticalAlign=middle;points=[];fillColor=none;strokeColor=none;rounded=0;" vertex="1" parent="1">
          <mxGeometry x="45" y="490" width="70" height="20" as="geometry" />
        </mxCell>
        <mxCell id="YGxNnv0O2CKbyeqGC6qJ-38" value="Valid login?" style="rhombus;whiteSpace=wrap;html=1;" vertex="1" parent="1">
          <mxGeometry x="30" y="410" width="85" height="50" as="geometry" />
        </mxCell>
        <mxCell id="YGxNnv0O2CKbyeqGC6qJ-40" value="" style="endArrow=classic;html=1;exitX=0.353;exitY=0.18;exitDx=0;exitDy=0;exitPerimeter=0;" edge="1" parent="1" source="YGxNnv0O2CKbyeqGC6qJ-38" target="YGxNnv0O2CKbyeqGC6qJ-9">
          <mxGeometry relative="1" as="geometry">
            <mxPoint x="380" y="450" as="sourcePoint" />
            <mxPoint x="480" y="450" as="targetPoint" />
            <Array as="points">
              <mxPoint x="50" y="80" />
              <mxPoint x="321" y="80" />
            </Array>
          </mxGeometry>
        </mxCell>
        <mxCell id="YGxNnv0O2CKbyeqGC6qJ-41" value="Yes" style="edgeLabel;resizable=0;html=1;align=center;verticalAlign=middle;" connectable="0" vertex="1" parent="YGxNnv0O2CKbyeqGC6qJ-40">
          <mxGeometry relative="1" as="geometry" />
        </mxCell>
        <mxCell id="YGxNnv0O2CKbyeqGC6qJ-42" value="" style="rounded=0;whiteSpace=wrap;html=1;" vertex="1" parent="1">
          <mxGeometry x="680" y="120" width="120" height="200" as="geometry" />
        </mxCell>
        <mxCell id="YGxNnv0O2CKbyeqGC6qJ-43" value="View BS Drive page" style="text;html=1;resizable=0;autosize=1;align=center;verticalAlign=middle;points=[];fillColor=none;strokeColor=none;rounded=0;" vertex="1" parent="1">
          <mxGeometry x="680" y="120" width="120" height="20" as="geometry" />
        </mxCell>
        <mxCell id="YGxNnv0O2CKbyeqGC6qJ-44" value="Doc instance" style="rounded=0;whiteSpace=wrap;html=1;" vertex="1" parent="1">
          <mxGeometry x="690" y="150" width="40" height="40" as="geometry" />
        </mxCell>
        <mxCell id="YGxNnv0O2CKbyeqGC6qJ-45" value="Doc instance" style="rounded=0;whiteSpace=wrap;html=1;" vertex="1" parent="1">
          <mxGeometry x="690" y="200" width="40" height="40" as="geometry" />
        </mxCell>
        <mxCell id="YGxNnv0O2CKbyeqGC6qJ-46" value="Doc instance" style="rounded=0;whiteSpace=wrap;html=1;" vertex="1" parent="1">
          <mxGeometry x="740" y="150" width="40" height="40" as="geometry" />
        </mxCell>
        <mxCell id="YGxNnv0O2CKbyeqGC6qJ-47" value="Doc instance" style="rounded=0;whiteSpace=wrap;html=1;" vertex="1" parent="1">
          <mxGeometry x="740" y="200" width="40" height="40" as="geometry" />
        </mxCell>
        <mxCell id="YGxNnv0O2CKbyeqGC6qJ-49" value="" style="endArrow=classic;html=1;" edge="1" parent="1" source="YGxNnv0O2CKbyeqGC6qJ-37" target="YGxNnv0O2CKbyeqGC6qJ-38">
          <mxGeometry width="50" height="50" relative="1" as="geometry">
            <mxPoint x="20" y="510" as="sourcePoint" />
            <mxPoint x="70" y="460" as="targetPoint" />
          </mxGeometry>
        </mxCell>
        <mxCell id="YGxNnv0O2CKbyeqGC6qJ-50" value="" style="endArrow=classic;html=1;" edge="1" parent="1" source="YGxNnv0O2CKbyeqGC6qJ-38">
          <mxGeometry relative="1" as="geometry">
            <mxPoint x="70" y="370" as="sourcePoint" />
            <mxPoint x="120" y="370" as="targetPoint" />
          </mxGeometry>
        </mxCell>
        <mxCell id="YGxNnv0O2CKbyeqGC6qJ-51" value="No" style="edgeLabel;resizable=0;html=1;align=center;verticalAlign=middle;" connectable="0" vertex="1" parent="YGxNnv0O2CKbyeqGC6qJ-50">
          <mxGeometry relative="1" as="geometry" />
        </mxCell>
        <mxCell id="YGxNnv0O2CKbyeqGC6qJ-52" value="?" style="text;html=1;resizable=0;autosize=1;align=center;verticalAlign=middle;points=[];fillColor=none;strokeColor=none;rounded=0;" vertex="1" parent="1">
          <mxGeometry x="115" y="350" width="20" height="20" as="geometry" />
        </mxCell>
        <mxCell id="YGxNnv0O2CKbyeqGC6qJ-53" value="" style="endArrow=none;dashed=1;html=1;dashPattern=1 3;strokeWidth=2;" edge="1" parent="1" source="YGxNnv0O2CKbyeqGC6qJ-12" target="YGxNnv0O2CKbyeqGC6qJ-54">
          <mxGeometry width="50" height="50" relative="1" as="geometry">
            <mxPoint x="430" y="320" as="sourcePoint" />
            <mxPoint x="440" y="360" as="targetPoint" />
          </mxGeometry>
        </mxCell>
        <mxCell id="YGxNnv0O2CKbyeqGC6qJ-54" value="Allowed upload types:&lt;br&gt;.doc&lt;br&gt;.docx&lt;br&gt;.pdf&lt;br&gt;.jpeg&lt;br&gt;.xls" style="text;html=1;resizable=0;autosize=1;align=center;verticalAlign=middle;points=[];fillColor=none;strokeColor=none;rounded=0;" vertex="1" parent="1">
          <mxGeometry x="390" y="365" width="130" height="90" as="geometry" />
        </mxCell>
        <mxCell id="YGxNnv0O2CKbyeqGC6qJ-77" value="" style="edgeStyle=orthogonalEdgeStyle;rounded=0;orthogonalLoop=1;jettySize=auto;html=1;" edge="1" parent="1" source="YGxNnv0O2CKbyeqGC6qJ-55" target="YGxNnv0O2CKbyeqGC6qJ-59">
          <mxGeometry relative="1" as="geometry" />
        </mxCell>
        <mxCell id="YGxNnv0O2CKbyeqGC6qJ-55" value="" style="shape=curlyBracket;whiteSpace=wrap;html=1;rounded=1;size=0.5;direction=west;" vertex="1" parent="1">
          <mxGeometry x="520" y="370" width="20" height="80" as="geometry" />
        </mxCell>
        <mxCell id="YGxNnv0O2CKbyeqGC6qJ-81" value="" style="edgeStyle=orthogonalEdgeStyle;rounded=0;orthogonalLoop=1;jettySize=auto;html=1;entryX=-0.017;entryY=0.55;entryDx=0;entryDy=0;entryPerimeter=0;" edge="1" parent="1" source="YGxNnv0O2CKbyeqGC6qJ-59" target="YGxNnv0O2CKbyeqGC6qJ-61">
          <mxGeometry relative="1" as="geometry">
            <Array as="points">
              <mxPoint x="600" y="350" />
              <mxPoint x="460" y="350" />
              <mxPoint x="460" y="286" />
            </Array>
          </mxGeometry>
        </mxCell>
        <mxCell id="YGxNnv0O2CKbyeqGC6qJ-59" value="URL link" style="text;html=1;resizable=0;autosize=1;align=center;verticalAlign=middle;points=[];fillColor=none;strokeColor=none;rounded=0;" vertex="1" parent="1">
          <mxGeometry x="570" y="400" width="60" height="20" as="geometry" />
        </mxCell>
        <mxCell id="YGxNnv0O2CKbyeqGC6qJ-61" value="Doc.URL" style="text;html=1;resizable=0;autosize=1;align=center;verticalAlign=middle;points=[];fillColor=none;strokeColor=none;rounded=0;" vertex="1" parent="1">
          <mxGeometry x="480" y="275" width="60" height="20" as="geometry" />
        </mxCell>
        <mxCell id="YGxNnv0O2CKbyeqGC6qJ-63" value="Doc.UserID" style="text;html=1;resizable=0;autosize=1;align=center;verticalAlign=middle;points=[];fillColor=none;strokeColor=none;rounded=0;" vertex="1" parent="1">
          <mxGeometry x="480" y="100" width="80" height="20" as="geometry" />
        </mxCell>
        <mxCell id="YGxNnv0O2CKbyeqGC6qJ-65" value="Option 1" style="endArrow=classic;html=1;exitX=0.5;exitY=0;exitDx=0;exitDy=0;entryX=0;entryY=0.75;entryDx=0;entryDy=0;entryPerimeter=0;" edge="1" parent="1" source="YGxNnv0O2CKbyeqGC6qJ-10" target="YGxNnv0O2CKbyeqGC6qJ-63">
          <mxGeometry width="50" height="50" relative="1" as="geometry">
            <mxPoint x="430" y="300" as="sourcePoint" />
            <mxPoint x="480" y="250" as="targetPoint" />
          </mxGeometry>
        </mxCell>
        <mxCell id="YGxNnv0O2CKbyeqGC6qJ-71" style="edgeStyle=orthogonalEdgeStyle;rounded=0;orthogonalLoop=1;jettySize=auto;html=1;exitX=0.1;exitY=0.5;exitDx=0;exitDy=0;exitPerimeter=0;" edge="1" parent="1" source="YGxNnv0O2CKbyeqGC6qJ-68" target="YGxNnv0O2CKbyeqGC6qJ-69">
          <mxGeometry relative="1" as="geometry" />
        </mxCell>
        <mxCell id="YGxNnv0O2CKbyeqGC6qJ-68" value="" style="shape=curlyBracket;whiteSpace=wrap;html=1;rounded=1;size=0.5;direction=south;" vertex="1" parent="1">
          <mxGeometry x="485" y="70" width="80" height="20" as="geometry" />
        </mxCell>
        <mxCell id="YGxNnv0O2CKbyeqGC6qJ-69" value="Instance of Doc object" style="text;html=1;resizable=0;autosize=1;align=center;verticalAlign=middle;points=[];fillColor=none;strokeColor=none;rounded=0;" vertex="1" parent="1">
          <mxGeometry x="460" y="30" width="130" height="20" as="geometry" />
        </mxCell>
        <mxCell id="YGxNnv0O2CKbyeqGC6qJ-78" value="" style="endArrow=classic;html=1;exitX=1;exitY=0.5;exitDx=0;exitDy=0;entryX=1.025;entryY=0.4;entryDx=0;entryDy=0;entryPerimeter=0;" edge="1" parent="1" source="YGxNnv0O2CKbyeqGC6qJ-16" target="YGxNnv0O2CKbyeqGC6qJ-63">
          <mxGeometry relative="1" as="geometry">
            <mxPoint x="450" y="499.5" as="sourcePoint" />
            <mxPoint x="610" y="499.5" as="targetPoint" />
            <Array as="points">
              <mxPoint x="360" y="395" />
              <mxPoint x="360" y="500" />
              <mxPoint x="640" y="500" />
              <mxPoint x="640" y="108" />
            </Array>
          </mxGeometry>
        </mxCell>
        <mxCell id="YGxNnv0O2CKbyeqGC6qJ-79" value="Option 2" style="edgeLabel;resizable=0;html=1;align=center;verticalAlign=middle;" connectable="0" vertex="1" parent="YGxNnv0O2CKbyeqGC6qJ-78">
          <mxGeometry relative="1" as="geometry" />
        </mxCell>
        <mxCell id="YGxNnv0O2CKbyeqGC6qJ-82" value=". . . etc." style="text;html=1;resizable=0;autosize=1;align=center;verticalAlign=middle;points=[];fillColor=none;strokeColor=none;rounded=0;" vertex="1" parent="1">
          <mxGeometry x="710" y="260" width="50" height="20" as="geometry" />
        </mxCell>
      </root>
    </mxGraphModel>
  </diagram>
</mxfile>
